<svg xmlns="http://www.w3.org/2000/svg" viewBox="0 0 600 400"><rect width="600" height="400" fill="#fff"/><g transform="translate(150 40)"><rect width="300" height="50" rx="8" fill="#E31837"/><text x="150" y="35" fill="#fff" text-anchor="middle" font-family="Arial" font-weight="bold" font-size="30">GeneXus</text></g><text x="300" y="120" fill="#E31837" text-anchor="middle" font-family="Arial" font-weight="bold" font-size="32">Next</text><text x="300" y="180" fill="#333" text-anchor="middle" font-family="Arial" font-weight="bold" font-size="20">Plataforma Low-Code Empresarial</text><text x="300" y="210" fill="#333" text-anchor="middle" font-family="Arial" font-weight="bold" font-size="20">impulsada por IA</text><g transform="translate(80 240)"><rect width="80" height="80" rx="4" fill="none" stroke="#E31837" stroke-width="2"/><rect x="10" y="20" width="60" height="10" rx="2" fill="#E31837" opacity=".2"/><rect x="10" y="40" width="40" height="10" rx="2" fill="#E31837" opacity=".2"/><g transform="translate(120 0)"><rect width="80" height="80" rx="4" fill="none" stroke="#E31837" stroke-width="2"/><path d="M40 20l15 15-15 15-15-15z" fill="none" stroke="#E31837" stroke-width="2"/><circle cx="40" cy="35" r="8" fill="#E31837" opacity=".2"/></g><g transform="translate(240 0)"><rect width="80" height="80" rx="4" fill="none" stroke="#E31837" stroke-width="2"/><rect x="10" y="20" width="40" height="30" rx="2" fill="#E31837" opacity=".2"/><rect x="55" y="20" width="15" height="30" rx="2" fill="#E31837" opacity=".2"/></g><g transform="translate(360 0)"><rect width="80" height="80" rx="4" fill="none" stroke="#E31837" stroke-width="2"/><path d="M20 60l20-30 20 15 20-25" stroke="#E31837" stroke-width="2" fill="none"/><circle cx="40" cy="30" r="3" fill="#E31837"/><circle cx="60" cy="45" r="3" fill="#E31837"/></g></g></svg>