<?xml version="1.0" encoding="utf-8"?>
<!DOCTYPE svg PUBLIC "-//W3C//DTD SVG 20010904//EN" "http://www.w3.org/TR/2001/REC-SVG-20010904/DTD/svg10.dtd">
<svg version="1.0" width="424.5pt" height="120pt" viewBox="0 0 424.5 120" preserveAspectRatio="xMidYMid meet" xmlns="http://www.w3.org/2000/svg">
  <g transform="translate(0,120)scale(.075,.075)">
    <path id="path1" d="M 0 -800 l 0 800 2830 0 2830 0 0 -800 0 -800 -2830 0 -2830 0 0 800 z m 5110 -753 c 3 4 3 31 -2 59 l -9 52 -54 -2 c -65 -1 -78 10 -79 66 l -1 43 57 3 58 3 0 59 0 60 -60 0 -60 0 0 235 0 235 -80 0 -80 0 -2 -232 -3 -233 -43 -3 -42 -3 0 -59 0 -59 42 -3 43 -3 6 -71 c 6 -85 25 -118 82 -145 35 -17 56 -19 131 -15 49 3 92 9 96 13 z m -4150 58 l 0 65 -60 0 -60 0 0 395 0 395 60 0 60 0 0 65 0 65 -140 0 -140 0 0 -525 0 -525 140 0 140 0 0 65 z m 950 10 l 0 76 -78 -3 -77 -3 -3 -73 -3 -72 81 0 80 0 0 75 z m 430 450 l 0 525 -140 0 -140 0 0 -65 0 -65 65 0 65 0 0 -395 0 -395 -65 0 -65 0 0 -65 0 -65 140 0 140 0 0 525 z m 2992 -397 l 3 97 53 3 52 3 0 60 0 59 -55 0 -55 0 0 164 c 0 184 2 190 67 184 l 38 -3 7 54 c 5 30 5 58 0 63 -4 4 -31 12 -61 18 -81 15 -176 -12 -197 -58 -5 -9 -11 -107 -14 -217 l -5 -200 -33 -3 -32 -3 0 -59 0 -59 32 -3 c 32 -3 33 -4 38 -61 l 5 -58 65 -39 c 36 -21 70 -39 77 -39 9 -1 13 28 15 97 z m -3831 106 c 41 17 86 66 94 99 2 12 6 107 8 212 3 143 8 201 20 233 l 16 42 -80 0 -80 0 -11 -31 -10 -30 -22 20 c -60 56 -193 71 -267 30 -59 -33 -81 -68 -87 -132 -5 -68 17 -120 67 -153 21 -13 88 -36 159 -52 68 -17 127 -34 131 -38 15 -16 -8 -70 -34 -82 -55 -25 -137 -4 -150 38 -7 22 -23 24 -99 14 -26 -4 -50 -13 -53 -20 -3 -8 5 -34 17 -59 27 -56 79 -93 147 -105 65 -12 190 -4 234 14 z m 2324 11 c 51 25 88 69 100 116 6 24 3 27 -32 32 -77 13 -112 9 -128 -16 -28 -44 -104 -61 -159 -36 -59 27 -39 59 54 85 200 56 217 63 255 105 36 41 37 43 33 109 -3 55 -9 74 -31 104 -49 64 -118 88 -246 88 -83 -1 -147 -19 -196 -56 -38 -29 -84 -111 -70 -125 6 -5 42 -12 82 -16 l 72 -7 16 32 c 20 39 75 64 128 57 77 -10 113 -61 65 -90 -13 -8 -72 -27 -131 -42 -148 -38 -200 -77 -213 -157 -13 -78 21 -150 89 -184 77 -40 229 -40 312 1 z m 665 -4 c 63 27 132 102 154 166 20 60 20 164 0 233 -12 39 -29 66 -68 105 -62 62 -127 87 -222 87 -176 -1 -291 -109 -302 -283 -10 -168 74 -291 225 -329 56 -14 155 -4 213 21 z m -2580 284 l 0 295 -80 0 -80 0 0 -295 0 -295 80 0 80 0 0 295 z M 1348 -981 c -67 17 -108 43 -108 67 0 7 11 25 24 41 18 21 33 28 63 28 58 0 99 -34 111 -92 16 -71 15 -72 -90 -44 z M 4293 -1200 c -75 45 -101 182 -53 268 44 79 117 102 180 60 94 -65 104 -221 20 -309 -31 -32 -44 -39 -76 -39 -21 0 -53 9 -71 20 z " />
  </g>
</svg>